<?xml version="1.0" standalone="no"?>
<!DOCTYPE svg PUBLIC "-//W3C//DTD SVG 20010904//EN"
 "http://www.w3.org/TR/2001/REC-SVG-20010904/DTD/svg10.dtd">
<svg version="1.0" xmlns="http://www.w3.org/2000/svg"
 width="192.000000pt" height="192.000000pt" viewBox="0 0 192.000000 192.000000"
 preserveAspectRatio="xMidYMid meet">
<metadata>
Created by potrace 1.11, written by Peter Selinger 2001-2013
</metadata>
<g transform="translate(0.000000,192.000000) scale(0.100000,-0.100000)"
fill="#000000" stroke="none">
<path d="M636 1690 c-181 -104 -330 -190 -332 -190 -2 0 -24 -13 -49 -29 l-45
-29 89 -51 c49 -28 93 -51 99 -51 10 0 183 97 345 193 43 26 80 47 82 47 1 0
33 18 70 39 54 32 72 38 91 31 13 -5 141 -77 283 -160 143 -82 265 -150 272
-150 12 0 192 101 187 105 -3 2 -243 141 -303 175 -16 10 -97 56 -179 104 -82
47 -150 86 -151 86 -2 0 -29 16 -61 35 -32 19 -60 35 -64 35 -3 0 -153 -85
-334 -190z"/>
<path d="M940 1560 c-15 -9 -19 -44 -20 -185 l0 -70 -122 -70 c-179 -103 -162
-75 -162 -263 l0 -160 -98 -57 c-104 -60 -120 -77 -107 -112 15 -41 41 -36
145 23 55 31 104 57 109 57 6 0 69 -35 141 -77 72 -42 137 -76 145 -76 8 0 56
25 108 55 51 30 95 55 98 55 2 0 20 11 40 24 l35 24 46 -25 c25 -14 69 -39 96
-56 28 -16 58 -31 66 -32 23 -4 47 12 53 36 8 29 -20 55 -123 112 l-85 48 0
160 c-1 189 16 162 -164 265 l-121 69 0 117 c0 93 -3 120 -16 132 -17 18 -42
20 -64 6z m121 -391 c49 -28 87 -54 84 -59 -6 -10 -165 -100 -176 -100 -4 0
-49 24 -99 53 l-90 53 32 17 c18 9 60 32 93 52 33 19 62 35 64 35 2 0 44 -23
92 -51z m-229 -197 l83 -48 3 -107 c1 -59 0 -107 -3 -107 -3 0 -45 23 -94 52
l-88 51 -2 104 c0 57 3 103 8 103 5 0 47 -22 93 -48z m375 -56 c-1 -57 -4
-106 -7 -108 -11 -10 -170 -98 -175 -98 -3 0 -4 48 -3 107 l3 106 80 48 c44
27 85 48 92 49 8 0 11 -30 10 -104z"/>
<path d="M160 922 l0 -440 118 -68 c64 -37 153 -88 197 -114 44 -26 100 -58
125 -72 25 -14 105 -60 178 -103 73 -42 135 -75 138 -72 3 2 5 38 5 78 1 139
2 134 -33 152 -18 9 -54 29 -80 44 -44 26 -292 170 -382 222 -82 46 -75 16
-78 379 l-3 326 -45 26 c-25 14 -66 39 -92 54 l-47 28 -1 -440z"/>
<path d="M1683 1307 l-92 -52 -1 -327 0 -327 -32 -24 c-18 -13 -145 -88 -283
-167 -137 -79 -251 -144 -253 -145 -1 -1 -4 -52 -5 -113 -2 -107 -1 -110 18
-99 11 5 115 65 230 132 116 67 230 133 255 147 25 14 93 53 153 88 l107 62 0
439 c0 241 -1 439 -2 439 -2 -1 -44 -24 -95 -53z"/>
</g>
</svg>
